<svg class="c-logo w-24 h-24 md:w-48 md:h-48 text-white js-logo" width="150" height="150" xmlns="http://www.w3.org/2000/svg" viewBox="0 0 337.987 458.65">
  <g id="typo" data-name="typo" transform="translate(-792 -311)">
    <path id="Pfad_1" data-name="Pfad 1" d="M25.194,358.661a29.373,29.373,0,0,1-10.206-1.728l1.35-5.507a21.316,21.316,0,0,0,8.154,1.889c3.78,0,6.264-1.944,6.264-4.86,0-2-1.3-3.672-5.022-5.94-1.3-.809-3.834-2.484-5.292-3.509-3.078-2.053-4.914-4.752-4.914-7.939,0-6.155,4.806-10.26,11.934-10.26a26.972,26.972,0,0,1,8.424,1.3l-1.242,5.076a16.925,16.925,0,0,0-5.832-1.242c-3.672,0-5.832,1.62-5.832,4.212,0,1.945.972,3.078,4.7,5.508,2.754,1.782,4.86,3.24,5.508,3.78,3.294,2.538,4.86,4.968,5.184,7.939.756,6.75-5.184,11.285-13.176,11.285" transform="translate(792 311)" fill="var(--svg-brand-text-color, white)"></path>
    <path id="Pfad_2" data-name="Pfad 2" d="M66.126,357.851l-2.916-9.288H50.79l-2.97,9.288H40.26l13.878-36.018h6.534l13.446,36.018Zm-8.91-28.512-4.752,13.985H61.7Z" transform="translate(792 311)" fill="var(--svg-brand-text-color, white)"></path>
    <path id="Pfad_3" data-name="Pfad 3" d="M78.815,357.851V321.833h7.4V352.4H98.687v5.454Z" transform="translate(792 311)" fill="var(--svg-brand-text-color, white)"></path>
    <path id="Pfad_4" data-name="Pfad 4" d="M100.922,357.851v-4.86l15.822-25.92H101.732v-5.238h23.6v4.86l-15.66,25.7h15.822v5.454Z" transform="translate(792 311)" fill="var(--svg-brand-text-color, white)"></path>
    <path id="Pfad_5" data-name="Pfad 5" d="M153.247,355.745c-2.052,1.458-4.752,2.106-8.694,2.106H132.727V321.833h10.044c4.914,0,7.776.594,9.882,2.052a7.88,7.88,0,0,1,3.4,6.8c0,4.267-2.484,7.074-7.182,8.1,5.616.7,8.316,3.563,8.316,8.747a9.729,9.729,0,0,1-3.942,8.208m-10.692-28.836h-2.862v9.666h2.916c4,0,6.156-1.782,6.156-5.075,0-3.187-1.944-4.591-6.21-4.591m-.216,14.526h-2.646v11.016h3.24c4.7,0,6.858-1.728,6.858-5.4,0-3.887-2.268-5.616-7.452-5.616" transform="translate(792 311)" fill="var(--svg-brand-text-color, white)"></path>
    <path id="Pfad_6" data-name="Pfad 6" d="M192.721,350.292c-1.727,5.237-7.128,8.369-14.418,8.369-5.4,0-9.395-1.674-11.5-4.806-1.566-2.376-1.944-4.049-1.944-10.637V321.834h7.4v21.491c0,4.483.324,5.779,1.3,7.345a6.127,6.127,0,0,0,5.508,2.645,6.761,6.761,0,0,0,5.725-2.7c1.295-1.674,1.565-2.861,1.565-7.4V321.834h7.183v20.79c0,4.319-.217,6.1-.811,7.668" transform="translate(792 311)" fill="var(--svg-brand-text-color, white)"></path>
    <path id="Pfad_7" data-name="Pfad 7" d="M221.664,357.851l-2.808-9.4c-1.08-3.617-1.513-4.319-2.43-5.075-.864-.7-1.674-.918-4.05-.918h-1.458v15.389h-7.237V321.834h10.531c4.589,0,7.29.647,9.4,2.214a8.572,8.572,0,0,1,3.186,6.965c0,4.59-2.323,7.237-7.615,8.749,3.4.486,5.023,2.267,6.75,7.505l3.511,10.584Zm-8.8-30.942c-.648,0-1.026,0-1.944.055v10.422h1.889a9.365,9.365,0,0,0,4.429-.811,4.985,4.985,0,0,0,2.808-4.752c0-3.456-2.161-4.914-7.182-4.914" transform="translate(792 311)" fill="var(--svg-brand-text-color, white)"></path>
    <path id="Pfad_8" data-name="Pfad 8" d="M248.556,358.661c-9.288,0-15.013-7.182-15.013-18.9,0-7.561,2.376-13.069,6.912-16.147,2.809-1.89,6.157-2.808,10.531-2.808a34.591,34.591,0,0,1,10.314,1.512l-1.4,5.508a26.36,26.36,0,0,0-8.91-1.781c-6.48,0-9.882,4.643-9.882,13.445,0,8.1,3.4,13.5,8.424,13.5a12.046,12.046,0,0,0,6.263-1.781V339.491h6.967v14.04c-4.7,3.349-9.666,5.13-14.2,5.13" transform="translate(792 311)" fill="var(--svg-brand-text-color, white)"></path>
    <path id="Pfad_9" data-name="Pfad 9" d="M271.4,357.851V321.833h20.412v5.238H278.686v9.558h12.1v5.238h-12.1V352.4h13.878v5.454Z" transform="translate(792 311)" fill="var(--svg-brand-text-color, white)"></path>
    <path id="Pfad_10" data-name="Pfad 10" d="M318.16,357.851l-2.808-9.4c-1.08-3.617-1.513-4.319-2.43-5.075-.864-.7-1.674-.918-4.05-.918h-1.458v15.389h-7.236V321.834h10.53c4.589,0,7.29.647,9.4,2.214a8.572,8.572,0,0,1,3.186,6.965c0,4.59-2.323,7.237-7.615,8.749,3.4.486,5.023,2.267,6.75,7.505l3.511,10.584Zm-8.8-30.942c-.648,0-1.026,0-1.944.055v10.422h1.89a9.363,9.363,0,0,0,4.428-.811,4.983,4.983,0,0,0,2.808-4.752c0-3.456-2.161-4.914-7.182-4.914" transform="translate(792 311)" fill="var(--svg-brand-text-color, white)"></path>
    <path id="Pfad_11" data-name="Pfad 11" d="M29.754,408.25l-.7-27.054L21.168,408.25H15.444L7.4,381.3,6.7,408.25H0l2.106-36.018h8.37l7.992,27,7.938-27H34.56l2.106,36.018Z" transform="translate(792 311)" fill="var(--svg-brand-text-color, white)"></path>
    <path id="Pfad_12" data-name="Pfad 12" d="M66.258,408.25l-2.916-9.288H50.922l-2.97,9.288h-7.56L54.27,372.232H60.8L74.25,408.25Zm-8.91-28.512L52.6,393.723H61.83Z" transform="translate(792 311)" fill="var(--svg-brand-text-color, white)"></path>
    <path id="Pfad_13" data-name="Pfad 13" d="M96.858,408.249l-2.808-9.4c-1.08-3.617-1.512-4.319-2.43-5.075-.864-.7-1.674-.918-4.05-.918H86.112v15.389H78.876V372.232h10.53c4.59,0,7.29.647,9.4,2.214a8.572,8.572,0,0,1,3.186,6.965c0,4.59-2.322,7.237-7.614,8.748,3.4.487,5.022,2.268,6.75,7.506l3.51,10.584Zm-8.8-30.942c-.648,0-1.026,0-1.944.055v10.422H88a9.357,9.357,0,0,0,4.428-.811,4.983,4.983,0,0,0,2.808-4.752c0-3.456-2.16-4.914-7.182-4.914" transform="translate(792 311)" fill="var(--svg-brand-text-color, white)"></path>
    <rect id="Rechteck_2" data-name="Rechteck 2" width="7.398" height="36.018" transform="translate(903.113 683.232)" fill="var(--svg-brand-text-color, white)"></rect>
    <path id="Pfad_14" data-name="Pfad 14" d="M141.569,409.059c-4.374,0-7.776-1.3-10.1-3.779-3.186-3.349-4.914-8.532-4.914-14.8,0-11.61,6.48-19.278,16.2-19.278a14.366,14.366,0,0,1,9.342,3.024c3.726,3.132,5.778,8.586,5.778,15.444,0,11.826-6.318,19.385-16.308,19.385m1.026-32.615c-5.292,0-8.424,5.237-8.424,14.094,0,8.477,2.862,13.229,7.83,13.229,5.238,0,8.262-5.183,8.262-14.039,0-8.478-2.754-13.284-7.668-13.284" transform="translate(792 311)" fill="var(--svg-brand-text-color, white)"></path>
    <path id="Pfad_15" data-name="Pfad 15" d="M185.578,408.25l-13.77-26.136V408.25H165.6V372.232h7.883L187.091,398.1V372.232h6.155V408.25Z" transform="translate(792 311)" fill="var(--svg-brand-text-color, white)"></path>
    <path id="Pfad_16" data-name="Pfad 16" d="M203.344,408.25V372.232h20.412v5.238H210.634v9.558h12.1v5.238h-12.1V402.8h13.878v5.454Z" transform="translate(792 311)" fill="var(--svg-brand-text-color, white)"></path>
    <path id="Pfad_17" data-name="Pfad 17" d="M243.3,377.469v30.78h-7.4v-30.78h-9.72v-5.237h26.838v5.237Z" transform="translate(792 311)" fill="var(--svg-brand-text-color, white)"></path>
    <path id="Pfad_18" data-name="Pfad 18" d="M267.654,377.469v30.78h-7.4v-30.78h-9.72v-5.237h26.838v5.237Z" transform="translate(792 311)" fill="var(--svg-brand-text-color, white)"></path>
    <path id="Pfad_19" data-name="Pfad 19" d="M281.936,408.25V372.232h20.412v5.238H289.226v9.558h12.1v5.238h-12.1V402.8H303.1v5.454Z" transform="translate(792 311)" fill="var(--svg-brand-text-color, white)"></path>
    <path id="Pfad_20" data-name="Pfad 20" d="M330.319,408.25l-13.77-26.136V408.25h-6.21V372.232h7.884L331.832,398.1V372.232h6.155V408.25Z" transform="translate(792 311)" fill="var(--svg-brand-text-color, white)"></path>
    <path id="Pfad_21" data-name="Pfad 21" d="M81.19,427.87v30.78h-7.4V427.87h-9.72v-5.237H90.91v5.237Z" transform="translate(792 311)" fill="var(--svg-brand-text-color, white)"></path>
    <path id="Pfad_22" data-name="Pfad 22" d="M116.614,458.65V442.288H102.79V458.65H95.5V422.632h7.29v14.31h13.824v-14.31h7.29V458.65Z" transform="translate(792 311)" fill="var(--svg-brand-text-color, white)"></path>
    <path id="Pfad_23" data-name="Pfad 23" d="M134.326,458.65V422.632h20.412v5.238H141.616v9.558h12.1v5.238h-12.1V453.2h13.878v5.454Z" transform="translate(792 311)" fill="var(--svg-brand-text-color, white)"></path>
    <path id="Pfad_24" data-name="Pfad 24" d="M183.088,458.65l-2.916-9.288h-12.42l-2.969,9.288h-7.56L171.1,422.632h6.534L191.08,458.65Zm-8.91-28.512-4.752,13.985h9.234Z" transform="translate(792 311)" fill="var(--svg-brand-text-color, white)"></path>
    <path id="Pfad_25" data-name="Pfad 25" d="M205.11,427.87v30.78h-7.4V427.87h-9.72v-5.237H214.83v5.237Z" transform="translate(792 311)" fill="var(--svg-brand-text-color, white)"></path>
    <path id="Pfad_26" data-name="Pfad 26" d="M219.42,458.65V422.632h20.412v5.238H226.71v9.558h12.1v5.238h-12.1V453.2h13.878v5.454Z" transform="translate(792 311)" fill="var(--svg-brand-text-color, white)"></path>
    <path id="Pfad_27" data-name="Pfad 27" d="M266.125,458.65l-2.808-9.4c-1.08-3.617-1.512-4.319-2.43-5.075-.864-.7-1.674-.918-4.05-.918h-1.458V458.65h-7.236V422.633h10.53c4.59,0,7.29.647,9.4,2.214a8.573,8.573,0,0,1,3.186,6.966c0,4.589-2.322,7.236-7.614,8.747,3.4.487,5.022,2.268,6.75,7.506l3.51,10.584Zm-8.8-30.942c-.648,0-1.026,0-1.944.055v10.422h1.89a9.357,9.357,0,0,0,4.428-.811,4.983,4.983,0,0,0,2.808-4.752c0-3.456-2.161-4.914-7.182-4.914" transform="translate(792 311)" fill="var(--svg-brand-text-color, white)"></path>
  </g>
  <g id="Gruppe_2" data-name="Gruppe 2" transform="translate(-792 -311)">
    <rect id="Rechteck_1" data-name="Rechteck 1" width="306.14" height="306.14" transform="translate(808.756 311.001)" fill="#ffffff"></rect>
    <path id="Pfad_28" data-name="Pfad 28" d="M322.9,5.529V0H293.922l3.637,38.312Z" transform="translate(792 311)" fill="#dc0503"></path>
    <path id="Pfad_29" data-name="Pfad 29" d="M201.193,163,231.107,0H172.589L189.5,178.128Z" transform="translate(792 311)" fill="#dc0503"></path>
    <path id="Pfad_30" data-name="Pfad 30" d="M264.061,81.654,248.043,0H239.89L212.711,148.094Z" transform="translate(792 311)" fill="#dc0503"></path>
    <path id="Pfad_31" data-name="Pfad 31" d="M289.83,48.312,285.244,0H256.849l14.235,72.567Z" transform="translate(792 311)" fill="#dc0503"></path>
    <path id="Pfad_32" data-name="Pfad 32" d="M190.692,190.712l1.846,19.442,5.254-28.628Z" transform="translate(792 311)" fill="#dc0503"></path>
    <path id="Pfad_33" data-name="Pfad 33" d="M311.869,280.476,291.024,60.9l-17.73,22.94Z" transform="translate(792 311)" fill="#dc0503"></path>
    <path id="Pfad_34" data-name="Pfad 34" d="M101.676,291.759l47.008-60.822L108.021,0H85.964L79.045,53.354Z" transform="translate(792 311)" fill="#dc0503"></path>
    <path id="Pfad_35" data-name="Pfad 35" d="M77.252,0H73.98l1.383,14.564Z" transform="translate(792 311)" fill="#dc0503"></path>
    <path id="Pfad_36" data-name="Pfad 36" d="M74.035,91.994,46.265,306.14h44.3l3.386-4.38Z" transform="translate(792 311)" fill="#dc0503"></path>
    <path id="Pfad_37" data-name="Pfad 37" d="M183.706,306.14H192.6L189.567,274.2Z" transform="translate(792 311)" fill="#dc0503"></path>
    <path id="Pfad_38" data-name="Pfad 38" d="M65.3,0H16.757V306.14h20.8L70.353,53.2Z" transform="translate(792 311)" fill="#dc0503"></path>
    <path id="Pfad_39" data-name="Pfad 39" d="M209.311,166.622,195.532,241.7l6.118,64.442H308.1L266.271,92.922Z" transform="translate(792 311)" fill="#dc0503"></path>
    <path id="Pfad_40" data-name="Pfad 40" d="M182.632,201.141,157.855,233.2,170.7,306.14h4.224l11.651-63.483Z" transform="translate(792 311)" fill="#dc0503"></path>
    <path id="Pfad_41" data-name="Pfad 41" d="M322.9,305.225V19.658L298.754,50.9Z" transform="translate(792 311)" fill="#dc0503"></path>
    <path id="Pfad_42" data-name="Pfad 42" d="M102.871,304.341l.17,1.8h58.885l-11.216-63.7Z" transform="translate(792 311)" fill="#dc0503"></path>
    <path id="Pfad_43" data-name="Pfad 43" d="M181.438,188.558,163.538,0H116.794l39.035,221.693Z" transform="translate(792 311)" fill="#dc0503"></path>
  </g>
</svg>
